PathFileType	3	(X/Y/Z)	RCH0000002 BBF 07.c3d
DataRate	CameraRate	NumFrames	NumMarkers	Units	OrigDataRate	OrigDataStartFrame	OrigNumFrames
100.0	100.0	16	23	mm	100.0	97	452
Frame#	Time	T2			T10			MAN			LASI			RASI			RPSI			LPAT			LKNE			LANK			LMED			LHEE			LTOE			RPAT			RKNE			RANK			RMED			RHEE			RTOE			LPSI			RTHI			LTHI			RTIB			LTIB			
		X1	Y1	Z1	X2	Y2	Z2	X3	Y3	Z3	X4	Y4	Z4	X5	Y5	Z5	X6	Y6	Z6	X7	Y7	Z7	X8	Y8	Z8	X9	Y9	Z9	X10	Y10	Z10	X11	Y11	Z11	X12	Y12	Z12	X13	Y13	Z13	X14	Y14	Z14	X15	Y15	Z15	X16	Y16	Z16	X17	Y17	Z17	X18	Y18	Z18	X19	Y19	Z19	X20	Y20	Z20	X21	Y21	Z21	X22	Y22	Z22	X23	Y23	Z23	

97	0.960	-1902.98033	-23.73876	987.75389	-1901.73497	-44.01623	797.75343	-1774.55499	-4.98424	948.68023	-1837.47811	63.03929	658.44968	-1792.80662	-109.09407	647.01722	-1913.17191	-89.06425	697.45519	-1896.88064	40.99372	377.91480	-1955.67999	95.35484	356.34315	-2055.40441	102.90392	94.59529	-2041.76319	34.88540	110.47035	-2083.98373	59.65370	132.45278	-2004.58583	71.11658	78.55099	-1675.59942	-50.82795	420.25223	-1709.68825	-103.77023	373.03928	-1790.46173	-131.34045	121.59749	-1804.09769	-62.97881	126.95705	-1832.36416	-101.86198	156.02401	-1751.20810	-93.53474	102.53506	-1927.63056	-22.31352	705.13176	-1737.28702	-179.59307	477.34837	-1932.24578	155.02836	484.33033	-1738.90698	-181.02477	274.35204	-2009.68971	162.21027	250.61073	
98	0.970	-1892.31897	-25.88857	985.61381	-1890.63537	-45.43857	795.45105	-1763.64385	-7.20456	946.85796	-1826.21416	62.48280	656.71233	-1780.44583	-109.47901	645.15835	-1901.28318	-90.35653	694.82120	-1888.88042	41.17271	375.60006	-1948.80953	94.82239	355.37595	-2054.37696	102.31725	96.08357	-2039.68935	34.41462	111.47318	-2081.56842	58.78051	134.51429	-2003.66058	71.12184	78.70502	-1663.61870	-49.20376	418.87637	-1695.54119	-103.26483	371.50865	-1765.89470	-134.63922	116.59333	-1781.74159	-66.76554	121.02551	-1810.04927	-106.22485	149.30736	-1727.01409	-95.96743	99.00240	-1916.05446	-23.68422	702.71428	-1723.14534	-178.85418	475.96880	-1923.82635	154.37782	483.15394	-1718.75085	-181.92319	271.84274	-2005.85196	161.49905	251.14438	
99	0.980	-1881.70936	-28.29366	983.27772	-1879.18347	-46.83097	792.90368	-1752.78272	-9.54306	945.03193	-1814.40547	61.87650	654.66299	-1767.80924	-109.93476	643.19627	-1889.04513	-91.50124	692.15896	-1879.59247	41.09523	372.86686	-1940.53429	94.08477	353.91221	-2052.74167	101.69223	97.82562	-2037.19653	33.85361	112.61521	-2078.46275	57.91664	136.88439	-2002.40836	70.93711	78.89419	-1652.38369	-47.29178	416.33572	-1682.27057	-102.64288	369.07896	-1743.82687	-138.03158	111.51111	-1761.98203	-70.70213	115.17605	-1790.00727	-110.82851	142.79681	-1705.57186	-98.37276	95.26765	-1904.06652	-24.85558	700.11062	-1709.25986	-177.94893	473.85975	-1914.27755	153.59912	481.49299	-1699.87408	-182.67478	268.78282	-2000.63917	160.64710	251.48419	
100	0.990	-1871.14416	-30.92628	980.81552	-1867.40395	-48.13891	790.18485	-1741.96877	-11.97117	943.25734	-1802.11596	61.21127	652.32068	-1754.94841	-110.46585	641.23225	-1876.51207	-92.48471	689.57435	-1868.88716	40.74520	369.70760	-1930.69804	93.14825	351.90638	-2050.27521	101.08454	99.84463	-2034.13792	33.24952	113.93669	-2074.46446	57.15119	139.59486	-2000.67257	70.56783	79.14141	-1641.81475	-45.22820	412.82453	-1669.85909	-101.98245	365.90996	-1724.65439	-141.42460	106.53984	-1745.09731	-74.66181	109.63258	-1772.55808	-115.50576	136.73755	-1687.20147	-100.71348	91.49728	-1891.73240	-25.81748	697.37386	-1695.65280	-176.96062	471.16477	-1903.54013	152.67825	479.33224	-1682.52663	-183.28887	265.31805	-1993.78514	159.69508	251.57758	
101	1.000	-1860.61623	-33.74052	978.30664	-1855.33561	-49.30886	787.38228	-1731.19856	-14.45005	941.59158	-1789.42505	60.47223	649.72130	-1741.92830	-111.08344	639.37907	-1863.75193	-93.29834	687.18190	-1856.67932	40.09909	366.14637	-1919.18837	92.01582	349.34359	-2046.74830	100.54004	102.15395	-2030.34913	32.64340	115.47341	-2069.36922	56.56032	142.66115	-1998.27379	70.02304	79.47508	-1631.84438	-43.19383	408.59820	-1658.30234	-101.38489	362.21002	-1708.63798	-144.71487	101.86381	-1731.22390	-78.50302	104.60284	-1757.90277	-120.06785	131.34573	-1672.07693	-102.95017	87.85975	-1879.13030	-26.56535	694.57402	-1682.38449	-176.00406	468.05902	-1891.57965	151.59726	476.68300	-1666.93798	-183.80230	261.61023	-1985.06799	158.67591	251.38162	
102	1.010	-1850.11920	-36.67438	975.83844	-1843.02928	-50.29272	784.59572	-1720.46870	-16.93205	940.09416	-1776.42137	59.63940	646.92049	-1728.82321	-111.80519	637.75571	-1850.84132	-93.93976	685.09988	-1842.93870	39.12753	362.24810	-1905.94994	90.68595	346.25141	-2041.94008	100.08683	104.75610	-2025.65227	32.06321	117.25261	-2062.98415	56.19361	146.07863	-1995.01402	69.31425	79.92887	-1622.42791	-41.39848	403.95052	-1647.61377	-100.96905	358.21849	-1695.86622	-147.80155	97.64252	-1720.33805	-82.08793	100.25725	-1746.09673	-124.33137	126.78481	-1660.20245	-105.04462	84.50754	-1866.34426	-27.10125	691.79853	-1669.54991	-175.21787	464.73652	-1878.39273	150.33550	473.59126	-1653.28892	-184.28071	257.82262	-1974.33567	157.60775	250.87513	
103	1.020	-1839.64780	-39.65279	973.50365	-1830.54490	-51.05239	781.93342	-1709.77631	-19.36275	938.82596	-1763.19625	58.68910	643.99504	-1715.71144	-112.65387	636.48016	-1837.85964	-94.41464	683.44379	-1827.69542	37.79987	358.12447	-1890.99341	89.15339	342.70843	-2035.65324	99.72994	107.64181	-2019.86197	31.51889	119.28850	-2055.14191	56.06342	149.81968	-1990.68276	68.45501	80.54000	-1613.55011	-40.05932	399.18503	-1637.82498	-100.86249	354.18413	-1686.24026	-150.60135	93.99346	-1712.25737	-85.30294	96.71175	-1737.04041	-128.14764	123.14849	-1651.40914	-106.96490	81.56107	-1853.45725	-27.43584	689.15040	-1657.26745	-174.75132	461.39576	-1864.01296	148.87218	470.14407	-1641.68651	-184.81439	254.10725	-1961.52614	156.49022	250.07069	
104	1.030	-1829.19797	-42.59184	971.39660	-1817.94790	-51.56380	779.50722	-1699.11921	-21.68376	937.84772	-1749.83775	57.59634	641.04245	-1702.66931	-113.65493	635.66119	-1824.88285	-94.73860	682.31887	-1811.03958	36.09135	353.93449	-1874.39877	87.41169	338.84761	-2027.72827	99.44889	110.78897	-2012.79302	30.99971	121.57767	-2045.71394	56.13846	153.83175	-1985.06490	67.46073	81.34616	-1605.22659	-39.37571	394.58496	-1628.98105	-101.19004	350.34281	-1679.48408	-153.06207	90.98119	-1706.66304	-88.07707	94.01833	-1730.49061	-131.42789	120.45360	-1645.37414	-108.69129	79.09781	-1840.54477	-27.59056	686.74394	-1645.66183	-174.74718	458.22525	-1848.51518	147.18977	466.47221	-1632.14731	-185.50819	250.59531	-1946.67926	155.30453	249.02427	
105	1.040	-1818.76660	-45.40369	969.60879	-1805.30533	-51.82006	777.42663	-1688.49584	-23.83590	937.21758	-1736.42574	56.33756	638.17790	-1689.76555	-114.83327	635.38976	-1811.97791	-94.93856	681.81237	-1793.11493	33.99111	349.87854	-1856.31254	85.45702	334.85243	-2018.05525	99.19820	114.16155	-2004.26944	30.47409	124.09514	-2034.62085	56.34250	158.03696	-1977.95049	66.34826	82.38096	-1597.49984	-39.50456	390.38708	-1621.13160	-102.06093	346.89804	-1675.17959	-155.17121	88.61499	-1703.13896	-90.39317	92.16486	-1726.09087	-134.15758	118.64449	-1641.65912	-110.22067	77.14855	-1827.66994	-27.59924	684.69815	-1634.84473	-175.32340	455.39015	-1832.01709	145.27772	462.74740	-1624.59275	-186.46731	247.39040	-1929.93827	154.01754	247.83936	
106	1.050	-1808.35112	-48.00223	968.22388	-1792.68196	-51.83304	775.79232	-1677.90490	-25.76278	936.98795	-1723.02844	54.89383	635.52860	-1677.05663	-116.20978	635.73146	-1799.19858	-95.05273	681.98666	-1774.10744	31.51000	346.18562	-1836.93877	83.29241	330.94572	-2006.58124	98.91051	117.70854	-1994.13424	29.89138	126.79186	-2021.83806	56.55856	162.33360	-1969.14593	65.13461	83.66873	-1590.43090	-40.54043	386.76382	-1614.31950	-103.55617	344.00695	-1672.81969	-156.95621	86.85522	-1701.22024	-92.28820	91.08390	-1723.41543	-136.39476	117.60781	-1639.76112	-111.56775	75.70091	-1814.88056	-27.50822	683.12832	-1624.89713	-176.55707	453.02171	-1814.67726	143.13590	459.17333	-1618.85826	-187.78178	244.56497	-1911.53982	152.58883	246.66358	
107	1.060	-1797.94880	-50.30879	967.31263	-1780.13684	-51.63315	774.68964	-1667.34482	-27.41439	937.20173	-1709.70062	53.25366	633.22558	-1664.58385	-117.79820	636.72082	-1786.58313	-95.12887	682.87384	-1754.22998	28.68624	343.09497	-1816.52450	80.93167	327.37169	-1993.31201	98.50158	121.36361	-1982.25878	29.18552	129.59492	-2007.39542	56.63792	166.60027	-1958.48595	63.83446	85.21948	-1584.08800	-42.50423	383.81659	-1608.56974	-105.71815	341.77345	-1671.86919	-158.47560	85.62681	-1700.44218	-93.84187	90.66831	-1722.01846	-138.25203	117.19444	-1639.16642	-112.76169	74.70860	-1802.20844	-27.37435	682.13668	-1615.85711	-178.47402	451.21020	-1796.68872	140.77738	455.97033	-1614.71487	-189.51286	242.16007	-1891.79332	150.97900	245.67630	
108	1.070	-1787.55607	-52.25773	966.92823	-1767.72070	-51.26713	774.18271	-1656.81309	-28.75052	937.88850	-1696.48333	51.41535	631.39362	-1652.37256	-119.60265	638.35822	-1774.15437	-95.22043	684.47259	-1733.70522	25.58790	340.83435	-1795.34114	78.40195	324.37352	-1978.30762	97.87637	125.04611	-1968.55112	28.27997	132.41124	-1991.37052	56.41342	170.70283	-1945.84527	62.45664	87.02519	-1578.53418	-45.34269	381.58009	-1603.88064	-108.54429	340.24844	-1671.82228	-159.80297	84.83653	-1700.38147	-95.15598	90.79020	-1721.47980	-139.86613	117.24394	-1639.39854	-113.83872	74.10413	-1789.67086	-27.26072	681.80303	-1607.71575	-181.04609	450.00185	-1778.26827	138.22994	453.35553	-1611.89891	-191.68407	240.18864	-1871.05207	149.15692	245.06807	
109	1.080	-1777.16785	-53.80126	967.10246	-1755.47420	-50.79393	774.30969	-1646.30574	-29.74373	939.06092	-1683.40481	49.38833	630.14041	-1640.43345	-121.61640	640.60985	-1761.92172	-95.38108	686.74754	-1712.74870	22.31135	339.59833	-1773.66343	75.74447	322.16958	-1961.67260	96.93599	128.66392	-1952.96227	27.09374	135.13513	-1973.87683	55.71550	174.50411	-1931.14882	61.00016	89.05844	-1573.81534	-48.93843	380.03528	-1600.21899	-111.98608	339.43563	-1672.24736	-161.00811	84.39054	-1700.68458	-96.33011	91.31965	-1721.44004	-141.36368	117.60708	-1640.05360	-114.83278	73.81192	-1777.27381	-27.23030	682.17648	-1600.42152	-184.19640	449.39979	-1759.64185	135.53635	451.52078	-1610.14390	-194.27809	238.64200	-1849.67983	147.10440	245.01480	
110	1.090	-1766.77712	-54.91313	967.84305	-1743.42741	-50.27933	775.07972	-1635.81685	-30.38148	940.71173	-1670.48233	47.19336	629.54633	-1628.76562	-123.82171	643.41041	-1749.88490	-95.65827	689.63105	-1691.55420	18.97530	339.52970	-1751.74833	73.01284	320.93179	-1943.54206	95.58505	132.11864	-1935.49004	25.54821	137.65916	-1955.04878	54.38960	177.87574	-1914.37897	59.45090	91.27395	-1569.95025	-53.12833	379.12636	-1597.51962	-115.95373	339.30073	-1672.81385	-162.14085	84.20852	-1701.08148	-97.44023	92.13993	-1721.62078	-142.83215	118.16257	-1640.81992	-115.76715	73.75963	-1765.01610	-27.33853	683.26926	-1593.89172	-187.81101	449.36855	-1741.02752	132.75290	450.61180	-1609.20832	-197.23971	237.49796	-1828.01743	144.81725	245.65110	
111	1.100	-1756.37476	-55.59076	969.13257	-1731.60016	-49.78961	776.47174	-1625.33841	-30.66741	942.81200	-1657.72443	44.86151	629.65598	-1617.36097	-126.19099	646.66823	-1738.03857	-96.08679	693.02720	-1670.28273	15.71091	340.70687	-1729.81621	70.26913	320.76924	-1924.06633	93.73952	135.31266	-1916.18013	23.57453	139.88710	-1935.02667	52.31323	180.71054	-1895.57856	57.78018	93.61309	-1566.92349	-57.72636	378.77729	-1595.68870	-120.32590	339.78169	-1673.29967	-163.22158	84.23219	-1701.38601	-98.52529	93.15752	-1721.82960	-144.30349	118.82608	-1641.48208	-116.64942	73.88602	-1752.89375	-27.62597	685.05342	-1588.02779	-191.75445	449.84139	-1722.61788	129.94629	450.71173	-1608.89405	-200.48377	236.72858	-1806.35331	142.30346	247.04846	
112	1.110	-1745.94984	-55.85570	970.92880	-1720.00339	-49.38524	778.43531	-1614.86059	-30.62146	945.31063	-1645.13306	42.43207	630.47281	-1606.20888	-128.68891	650.27192	-1726.37707	-96.68349	696.81732	-1649.05634	12.64891	343.13877	-1708.03648	67.57796	321.71926	-1903.39616	91.33476	138.15733	-1895.12412	21.12101	141.74643	-1913.94410	49.41069	182.93373	-1874.84868	55.94616	96.01035	-1564.68194	-62.54644	378.90457	-1594.60973	-124.96284	340.79806	-1673.58222	-164.24079	84.42717	-1701.48614	-99.58460	94.30590	-1721.95196	-145.75360	119.55111	-1641.91225	-117.47142	74.14462	-1740.90380	-28.11227	687.46073	-1582.73046	-195.88596	450.72957	-1704.56463	127.18878	451.83162	-1609.05319	-203.90657	236.30554	-1784.90112	139.57983	249.20248	
